<svg width="800" height="1027" viewBox="0 0 800 1027" fill="none" xmlns="http://www.w3.org/2000/svg">
<path fill-rule="evenodd" clip-rule="evenodd" d="M189.15 368.8C183.6 545.05 171.4 721.2 172.45 897.55C172.7 904.9 179 910.9 186.25 911H521.75L504.6 369.55C399.5 371.15 294.3 369.05 189.15 368.8ZM542.9 368.8C537.3 368.95 531.75 369.1 526.2 369.2L542.8 893.9L560.1 874.7C561.4 873.4 561.75 872.55 565.75 871.4L595.7 864.7L542.9 368.8ZM452.55 528.75C465.4 529.7 475.95 540.2 476.9 553.1C478.35 611.1 476.95 669.1 476.95 727.1C476.6 740.35 465.9 751.6 452.55 752.6C382.5 754.35 312.4 752.6 242.35 752.6C229.1 752.3 217.85 741.6 216.85 728.25C215.4 670.25 216.85 612.25 216.85 554.25C217.15 541 227.85 529.75 241.2 528.75C242.5 528.7 245.2 528.65 245.2 528.65H448.65C448.65 528.65 451.25 528.7 452.55 528.75ZM242.65 550.3C240.35 550.35 238.6 552.05 238.4 554.15C237 611.9 234.15 669.8 238.45 727.35C238.7 729.35 240.35 730.9 242.3 731.05C243.5 731.05 246.05 731.1 246.05 731.1L447.4 731.3C447.4 731.3 450.25 731.1 451.65 731C453.6 730.8 455.2 729.15 455.35 727.15C456.75 669.45 459.6 611.55 455.3 553.95C455.05 552 453.4 550.45 451.45 550.3C381.9 548.6 312.25 550.3 242.65 550.3ZM382.6 582.85C388.55 586.2 393.75 590.75 397.75 596.4C427.05 638.1 384.2 716.8 327.95 701.25C324.25 700.25 320.65 698.75 317.3 696.8C314.4 695.1 311.65 693.1 309.15 690.8C271.15 655.7 304.65 575.8 361.2 576.8C368.65 577.15 375.9 579.2 382.3 582.7C382.4 582.75 382.5 582.8 382.6 582.85ZM380.25 610C366.85 634.05 352.65 657.65 338.7 681.4C361.55 683.45 385.6 657.75 385.95 629.9C386 623.1 384.1 615.8 380.25 610ZM361.6 598.45C360.7 598.4 359.85 598.35 358.9 598.35C326.35 599.6 303.15 648.45 319.5 670.9C333.05 646.5 347.5 622.55 361.6 598.45ZM172.3 311H541.8L541.55 347.15H515.05H178.7H172.3V311Z" fill="black"/>
<path d="M343.857 161.55H334.286V333.45H343.857V161.55ZM353.429 161.55V333.45H406.071C414.001 333.45 420.429 327.036 420.429 319.125V175.875C420.429 167.964 414.001 161.55 406.071 161.55H353.429ZM324.714 161.55H319.929C311.999 161.55 305.571 167.964 305.571 175.875V319.125C305.571 327.036 311.999 333.45 319.929 333.45H324.714V161.55ZM408.297 199.749C412.564 207.107 411.465 216.605 405.25 222.806C397.775 230.265 385.654 230.265 378.178 222.806C371.974 216.615 370.857 207.121 375.132 199.749C373.503 196.94 372.571 193.679 372.571 190.2C372.571 179.651 381.142 171.1 391.714 171.1C402.287 171.1 410.857 179.651 410.857 190.2C410.857 193.678 409.925 196.94 408.297 199.749ZM400.986 206.914C398.239 208.434 395.078 209.3 391.714 209.3C388.35 209.3 385.189 208.434 382.442 206.914C381.624 210.094 382.483 213.596 384.946 216.053C388.684 219.782 394.744 219.782 398.482 216.053C400.948 213.592 401.803 210.091 400.986 206.914ZM319.929 343C306.713 343 296 332.311 296 319.125V175.875C296 162.689 306.713 152 319.929 152H406.071C419.287 152 430 162.689 430 175.875V319.125C430 332.311 419.287 343 406.071 343H319.929ZM401.286 190.2C401.286 184.926 397 180.65 391.714 180.65C386.428 180.65 382.143 184.926 382.143 190.2C382.143 195.474 386.428 199.75 391.714 199.75C397 199.75 401.286 195.474 401.286 190.2Z" fill="black"/>
</svg>
